<svg id="svg" version="1.1" xmlns="http://www.w3.org/2000/svg" xmlns:xlink="http://www.w3.org/1999/xlink" width="400" height="382.089552238806" viewBox="0, 0, 400,382.089552238806"><g id="svgg"><path id="path0" d="M184.112 20.780 C 184.133 28.441,184.107 28.509,181.055 28.890 C 179.920 29.032,178.792 29.387,178.550 29.679 C 178.307 29.971,177.465 30.210,176.678 30.210 C 175.826 30.210,174.853 30.520,174.274 30.975 C 173.739 31.396,172.796 31.740,172.178 31.740 C 171.560 31.740,170.657 32.084,170.172 32.505 C 169.687 32.925,168.963 33.270,168.564 33.270 C 168.165 33.270,167.202 33.599,166.424 34.002 C 165.646 34.404,164.000 35.222,162.765 35.818 C 159.243 37.520,158.530 37.937,158.203 38.490 C 157.422 39.806,155.871 39.021,152.109 35.405 C 150.061 33.437,148.126 31.726,147.807 31.604 C 147.488 31.482,147.228 31.204,147.228 30.987 C 147.228 30.770,146.797 30.593,146.272 30.593 C 145.746 30.593,145.315 30.753,145.315 30.950 C 145.315 31.404,137.397 39.388,136.946 39.388 C 136.761 39.388,136.519 39.732,136.409 40.153 C 136.299 40.574,135.935 40.918,135.600 40.918 C 135.265 40.918,134.990 41.192,134.990 41.527 C 134.990 41.862,134.646 42.227,134.226 42.337 C 133.805 42.447,133.461 42.791,133.461 43.101 C 133.461 43.412,133.117 43.756,132.696 43.866 C 132.275 43.976,131.931 44.320,131.931 44.631 C 131.931 44.942,131.587 45.286,131.166 45.396 C 130.746 45.506,130.402 45.764,130.402 45.969 C 130.402 46.174,128.767 47.932,126.769 49.875 C 122.520 54.008,122.549 53.888,125.143 56.653 C 131.845 63.792,132.192 64.311,131.040 65.463 C 130.513 65.991,129.701 67.383,128.700 69.477 C 128.380 70.146,127.966 70.788,127.780 70.903 C 127.594 71.018,127.335 71.642,127.206 72.290 C 127.076 72.937,126.710 73.727,126.391 74.046 C 126.073 74.364,125.813 75.176,125.813 75.851 C 125.813 76.603,125.517 77.329,125.048 77.732 C 124.588 78.125,124.283 78.860,124.283 79.573 C 124.283 80.225,123.939 81.196,123.518 81.731 C 123.081 82.287,122.753 83.283,122.753 84.056 C 122.753 84.800,122.485 85.705,122.156 86.068 C 121.828 86.431,121.460 87.683,121.340 88.851 C 121.053 91.633,120.619 91.778,112.568 91.778 L 106.322 91.778 106.411 108.764 C 106.461 118.106,106.644 125.893,106.819 126.068 C 106.993 126.243,110.120 126.472,113.767 126.577 C 121.360 126.796,120.723 126.549,121.256 129.479 C 122.098 134.107,123.559 138.080,126.868 144.742 C 130.046 151.139,130.493 151.944,131.071 152.313 C 132.500 153.228,131.616 154.773,127.153 159.159 C 124.735 161.536,122.756 163.692,122.755 163.952 C 122.754 164.212,126.453 168.127,130.975 172.653 C 135.497 177.179,139.197 180.951,139.197 181.034 C 139.197 181.361,145.725 187.691,146.282 187.905 C 146.690 188.062,148.308 186.699,151.456 183.550 C 156.038 178.966,157.598 178.028,158.169 179.514 C 158.284 179.815,158.838 180.252,159.400 180.485 C 159.961 180.719,161.109 181.329,161.950 181.842 C 162.792 182.354,163.910 182.959,164.436 183.185 C 165.547 183.663,168.328 184.903,169.981 185.657 C 170.612 185.945,171.558 186.290,172.084 186.424 C 172.610 186.559,173.556 186.894,174.187 187.171 C 175.385 187.695,179.726 189.027,182.022 189.574 C 184.053 190.058,184.332 190.981,184.306 197.132 C 184.294 200.076,184.292 202.875,184.303 203.350 L 184.321 204.214 201.434 204.115 L 218.547 204.015 218.738 197.323 C 218.956 189.678,218.914 189.807,221.328 189.456 C 222.322 189.312,223.572 188.972,224.105 188.702 C 224.638 188.432,225.757 188.091,226.591 187.944 C 227.425 187.797,228.451 187.465,228.872 187.207 C 229.293 186.948,230.153 186.613,230.784 186.463 C 231.415 186.312,232.663 185.854,233.556 185.446 C 235.188 184.701,237.934 183.479,239.006 183.021 C 239.321 182.887,240.268 182.358,241.109 181.848 C 241.950 181.337,242.990 180.756,243.419 180.557 C 243.848 180.357,244.429 179.918,244.709 179.581 C 245.846 178.211,246.927 178.824,251.537 183.460 C 253.994 185.931,256.226 187.902,256.496 187.840 C 257.171 187.685,280.306 164.498,280.306 163.976 C 280.306 163.746,278.327 161.589,275.908 159.184 C 271.348 154.650,270.790 153.643,272.048 152.229 C 272.343 151.897,273.123 150.593,273.781 149.331 C 274.440 148.069,275.119 146.778,275.291 146.463 C 275.463 146.147,275.995 145.029,276.472 143.977 C 276.949 142.925,277.663 141.429,278.058 140.651 C 278.453 139.873,278.776 138.969,278.776 138.642 C 278.776 138.315,279.120 137.405,279.541 136.620 C 279.962 135.835,280.306 134.795,280.306 134.308 C 280.306 133.821,280.559 132.933,280.869 132.335 C 281.178 131.736,281.546 130.497,281.686 129.581 C 282.163 126.462,281.894 126.578,288.637 126.572 C 296.972 126.565,296.213 127.074,296.519 121.288 C 296.854 114.950,296.871 93.304,296.541 92.445 C 296.312 91.848,295.619 91.778,289.921 91.773 C 282.039 91.766,281.692 91.639,281.526 88.714 C 281.458 87.531,281.154 86.345,280.824 85.981 C 280.503 85.626,280.147 84.592,280.032 83.682 C 279.917 82.771,279.596 81.764,279.318 81.443 C 279.040 81.122,278.698 80.143,278.558 79.268 C 278.418 78.393,278.090 77.594,277.829 77.494 C 277.568 77.394,277.246 76.631,277.113 75.799 C 276.980 74.967,276.622 74.080,276.319 73.828 C 276.015 73.576,275.658 72.877,275.526 72.275 C 275.394 71.673,275.038 70.976,274.736 70.725 C 274.434 70.475,274.187 70.056,274.187 69.794 C 274.187 69.533,273.843 68.882,273.423 68.347 C 273.002 67.812,272.658 67.171,272.658 66.923 C 272.658 66.674,272.300 66.181,271.864 65.828 C 270.547 64.762,271.262 63.508,275.837 58.854 C 278.743 55.899,280.067 54.284,279.984 53.794 C 279.869 53.117,275.813 48.951,271.543 45.124 C 270.487 44.178,269.617 43.188,269.611 42.925 C 269.604 42.663,269.324 42.447,268.989 42.447 C 268.654 42.447,268.290 42.103,268.180 41.683 C 268.070 41.262,267.821 40.918,267.627 40.918 C 267.433 40.918,264.955 38.595,262.121 35.755 C 259.286 32.916,256.742 30.593,256.467 30.593 C 256.192 30.593,253.968 32.572,251.524 34.990 C 246.881 39.587,246.115 39.997,244.742 38.623 C 244.321 38.203,243.717 37.859,243.400 37.859 C 243.082 37.859,242.528 37.514,242.167 37.094 C 241.807 36.673,241.230 36.329,240.884 36.329 C 240.539 36.329,239.819 35.985,239.284 35.564 C 238.749 35.143,238.061 34.799,237.754 34.799 C 237.448 34.799,236.759 34.455,236.225 34.034 C 235.690 33.614,235.048 33.270,234.799 33.270 C 234.550 33.270,233.909 32.925,233.374 32.505 C 232.839 32.084,232.080 31.740,231.687 31.740 C 231.294 31.740,230.330 31.396,229.545 30.975 C 228.761 30.554,227.686 30.209,227.157 30.208 C 226.628 30.207,225.738 29.967,225.180 29.676 C 224.622 29.385,223.128 29.026,221.860 28.879 C 218.872 28.532,218.738 28.160,218.738 20.211 L 218.738 14.149 201.416 14.149 L 184.095 14.149 184.112 20.780 M226.718 31.213 C 227.551 30.458,227.916 30.426,227.916 31.107 C 227.916 32.150,229.359 33.001,230.745 32.776 C 232.112 32.555,232.505 32.916,232.505 34.391 C 232.505 34.763,229.477 38.120,225.777 41.850 C 220.682 46.986,219.095 48.810,219.240 49.364 C 219.481 50.287,215.798 50.433,214.422 49.555 C 213.918 49.233,211.913 48.905,209.465 48.745 C 207.204 48.596,205.354 48.329,205.354 48.151 C 205.354 47.543,215.672 37.005,221.366 31.799 L 223.037 30.271 224.535 31.052 C 225.920 31.774,226.084 31.786,226.718 31.213 M153.286 37.846 C 155.850 40.190,157.294 40.573,158.457 39.219 L 159.384 38.141 159.831 38.975 C 160.685 40.571,132.669 68.808,131.734 67.294 C 131.596 67.071,131.751 66.478,132.079 65.978 C 132.874 64.765,132.261 62.976,130.306 60.804 C 127.732 57.945,127.527 58.273,139.153 46.627 C 150.790 34.972,150.403 35.212,153.286 37.846 M162.141 37.690 C 162.141 38.228,161.986 38.572,161.795 38.454 C 161.604 38.337,161.538 37.896,161.648 37.476 C 161.924 36.424,162.141 36.518,162.141 37.690 M193.117 48.419 C 193.117 48.500,192.299 48.546,191.300 48.521 C 189.738 48.482,189.644 48.439,190.631 48.215 C 191.703 47.972,193.117 48.088,193.117 48.419 M275.862 51.134 C 279.060 54.136,279.128 53.790,274.364 58.724 C 272.147 61.020,269.867 63.716,269.297 64.714 C 268.158 66.707,255.615 79.541,254.806 79.541 C 254.529 79.541,254.302 79.283,254.302 78.967 C 254.302 78.652,253.958 78.050,253.537 77.629 C 253.117 77.208,252.772 76.674,252.772 76.441 C 252.772 76.059,251.690 74.544,250.342 73.040 C 248.855 71.381,248.997 71.178,257.878 62.288 C 270.441 49.712,272.186 48.094,272.800 48.450 C 273.092 48.619,274.470 49.827,275.862 51.134 M212.782 49.917 C 213.821 50.226,215.112 50.476,215.653 50.472 C 216.193 50.469,217.839 50.831,219.312 51.275 C 221.966 52.077,222.680 52.353,226.004 53.863 C 226.950 54.293,228.155 54.825,228.681 55.046 C 229.817 55.523,230.104 55.698,234.799 58.768 C 236.797 60.075,239.099 61.756,239.914 62.503 C 240.729 63.251,241.458 63.862,241.532 63.862 C 241.832 63.862,246.654 68.871,246.654 69.182 C 246.654 69.366,246.874 69.601,247.143 69.704 C 247.675 69.908,253.171 77.932,253.946 79.637 C 254.210 80.215,254.532 80.688,254.663 80.688 C 254.795 80.688,255.384 81.764,255.973 83.078 C 256.562 84.393,257.278 85.985,257.565 86.616 C 258.336 88.310,259.865 93.195,260.378 95.602 C 260.625 96.759,261.007 98.554,261.227 99.592 C 261.885 102.689,261.485 118.588,260.672 121.606 C 259.672 125.325,258.509 128.854,257.650 130.784 C 253.390 140.354,250.003 145.419,243.584 151.816 C 237.157 158.223,237.107 158.202,237.066 149.069 C 237.050 145.638,236.900 141.969,236.732 140.918 C 236.248 137.896,235.228 133.534,234.833 132.796 C 234.635 132.426,233.953 130.960,233.317 129.539 C 230.989 124.338,226.301 118.812,221.529 115.644 C 218.887 113.891,217.885 111.281,219.852 111.281 C 220.030 111.281,220.389 110.765,220.650 110.134 C 220.911 109.503,221.263 108.987,221.431 108.987 C 221.599 108.987,221.850 108.469,221.989 107.835 C 222.128 107.202,222.455 106.471,222.716 106.210 C 224.038 104.886,225.238 96.554,224.315 95.111 C 224.016 94.645,223.651 93.089,223.502 91.652 C 223.339 90.076,223.034 88.965,222.734 88.850 C 222.461 88.745,222.125 87.998,221.989 87.189 C 221.852 86.381,221.495 85.625,221.195 85.510 C 220.895 85.395,220.650 85.068,220.650 84.782 C 220.650 84.497,220.220 83.859,219.694 83.365 C 219.168 82.871,218.738 82.322,218.738 82.145 C 218.738 81.595,214.835 78.322,213.671 77.897 C 213.303 77.763,213.002 77.497,213.002 77.306 C 213.002 77.116,212.454 76.850,211.784 76.716 C 211.114 76.582,210.295 76.227,209.963 75.927 C 208.083 74.225,194.576 74.203,192.880 75.899 C 192.610 76.169,191.779 76.504,191.032 76.644 C 190.286 76.784,189.675 77.042,189.675 77.218 C 189.675 77.393,189.147 77.755,188.501 78.023 C 186.984 78.651,183.049 82.586,182.420 84.103 C 182.153 84.749,181.791 85.277,181.615 85.277 C 181.440 85.277,181.181 85.923,181.040 86.711 C 180.898 87.500,180.565 88.403,180.300 88.719 C 178.590 90.748,178.624 103.617,180.343 105.570 C 180.633 105.899,180.980 106.717,181.114 107.386 C 181.248 108.056,181.514 108.604,181.704 108.604 C 181.895 108.604,182.160 108.905,182.294 109.273 C 182.429 109.641,183.026 110.509,183.623 111.201 C 184.838 112.611,184.444 114.390,182.799 114.912 C 177.450 116.609,168.939 128.219,167.237 136.138 C 166.944 137.505,166.545 139.312,166.351 140.153 C 166.157 140.994,165.991 144.790,165.982 148.588 C 165.964 156.255,165.634 157.645,164.154 156.305 C 163.750 155.939,163.304 155.641,163.163 155.641 C 162.731 155.641,154.876 147.726,154.876 147.290 C 154.876 147.066,154.660 146.746,154.395 146.577 C 153.622 146.085,150.831 142.174,149.652 139.932 C 149.055 138.795,148.456 137.777,148.322 137.671 C 147.885 137.322,145.698 132.448,145.698 131.821 C 145.698 131.486,145.530 131.108,145.326 130.982 C 145.121 130.855,144.767 130.028,144.539 129.143 C 144.310 128.258,143.875 126.991,143.572 126.328 C 143.269 125.666,143.019 124.547,143.016 123.843 C 143.014 123.138,142.758 121.616,142.447 120.459 C 141.077 115.365,140.920 99.630,142.214 97.211 C 142.406 96.852,142.686 95.698,142.836 94.646 C 142.986 93.595,143.337 92.218,143.616 91.587 C 143.895 90.956,144.310 89.716,144.539 88.831 C 144.767 87.946,145.102 87.130,145.283 87.018 C 145.463 86.907,145.721 86.228,145.856 85.511 C 145.990 84.794,146.343 84.006,146.639 83.760 C 146.936 83.514,147.287 82.820,147.419 82.218 C 147.551 81.616,147.906 80.919,148.208 80.668 C 148.510 80.417,148.757 80.018,148.758 79.781 C 148.758 79.544,149.446 78.359,150.287 77.147 C 151.128 75.935,151.816 74.842,151.816 74.717 C 151.816 74.591,152.255 73.948,152.791 73.287 C 153.326 72.625,154.316 71.398,154.990 70.559 C 156.566 68.596,161.139 64.023,163.102 62.446 C 163.941 61.773,165.168 60.783,165.830 60.248 C 166.491 59.712,167.138 59.273,167.268 59.273 C 167.397 59.273,168.371 58.663,169.432 57.918 C 170.493 57.172,171.739 56.398,172.201 56.198 C 172.662 55.997,173.298 55.668,173.614 55.465 C 173.929 55.262,175.220 54.648,176.482 54.100 C 177.744 53.551,179.207 52.876,179.732 52.599 C 180.258 52.323,181.259 51.974,181.957 51.825 C 182.655 51.675,183.687 51.312,184.251 51.018 C 184.816 50.724,185.793 50.474,186.424 50.464 C 187.055 50.453,188.260 50.179,189.101 49.856 C 192.410 48.582,208.426 48.624,212.782 49.917 M185.755 49.977 C 185.387 50.073,184.785 50.073,184.417 49.977 C 184.049 49.881,184.350 49.802,185.086 49.802 C 185.822 49.802,186.123 49.881,185.755 49.977 M144.049 88.623 C 143.953 88.991,143.875 88.690,143.875 87.954 C 143.875 87.218,143.953 86.917,144.049 87.285 C 144.146 87.653,144.146 88.255,144.049 88.623 M142.601 92.447 C 142.567 93.695,142.526 93.757,142.282 92.925 C 142.128 92.400,142.078 91.754,142.170 91.491 C 142.474 90.625,142.639 90.991,142.601 92.447 M260.684 93.212 C 260.588 93.580,260.509 93.279,260.509 92.543 C 260.509 91.807,260.588 91.506,260.684 91.874 C 260.780 92.242,260.780 92.844,260.684 93.212 M295.788 95.507 C 296.915 101.516,296.203 106.626,294.020 108.182 C 293.523 108.536,272.122 129.891,246.463 155.636 C 220.803 181.381,199.293 202.683,198.662 202.974 C 196.826 203.820,185.527 203.846,185.260 203.005 C 185.027 202.270,218.654 168.336,220.626 167.316 C 223.137 166.018,219.934 165.413,216.778 166.590 C 214.478 167.448,211.638 167.959,209.415 167.914 C 208.389 167.894,206.680 168.136,205.617 168.451 C 203.351 169.124,200.054 169.180,197.897 168.583 C 197.055 168.350,195.432 168.107,194.289 168.042 C 193.147 167.978,191.770 167.795,191.230 167.636 C 190.690 167.476,189.732 167.311,189.101 167.269 C 187.739 167.177,183.100 165.816,181.395 165.007 C 180.733 164.693,179.928 164.436,179.607 164.436 C 179.286 164.436,177.868 163.834,176.455 163.098 C 173.332 161.469,172.207 161.387,171.689 162.747 C 171.483 163.291,168.303 166.727,164.624 170.382 C 160.329 174.650,157.935 177.307,157.935 177.807 C 157.935 178.421,157.687 178.585,156.758 178.585 C 155.586 178.585,153.346 180.323,153.346 181.233 C 153.346 181.459,153.072 181.644,152.737 181.644 C 152.401 181.644,152.037 181.989,151.927 182.409 C 151.817 182.830,151.473 183.174,151.162 183.174 C 150.852 183.174,150.508 183.518,150.398 183.939 C 150.288 184.359,149.943 184.704,149.633 184.704 C 149.322 184.704,148.978 185.048,148.868 185.468 C 148.758 185.889,148.414 186.233,148.103 186.233 C 147.793 186.233,147.448 186.577,147.338 186.998 C 147.030 188.178,146.808 188.025,142.867 183.919 C 139.522 180.434,138.632 179.010,140.166 179.599 C 140.520 179.735,141.360 179.111,142.442 177.907 C 149.101 170.501,162.993 157.361,164.165 157.361 C 166.445 157.361,166.768 156.182,166.995 147.036 C 167.161 140.375,167.682 135.653,168.372 134.555 C 168.684 134.058,169.054 132.998,169.194 132.198 C 169.335 131.398,169.698 130.648,170.002 130.532 C 170.306 130.415,170.554 129.908,170.554 129.405 C 170.554 128.901,170.899 128.145,171.319 127.725 C 171.740 127.304,172.084 126.728,172.084 126.446 C 172.084 126.163,172.428 125.620,172.849 125.239 C 173.270 124.858,173.614 124.229,173.614 123.841 C 173.614 123.453,173.877 123.136,174.199 123.136 C 174.521 123.136,174.891 122.860,175.020 122.524 C 175.312 121.762,176.972 120.076,177.429 120.076 C 177.616 120.076,177.872 119.751,177.998 119.353 C 178.125 118.955,178.566 118.541,178.980 118.433 C 179.394 118.325,179.732 117.962,179.732 117.627 C 179.732 117.291,180.022 117.017,180.377 117.017 C 180.731 117.017,181.377 116.696,181.811 116.303 C 183.006 115.221,184.449 115.006,185.310 115.783 C 186.475 116.835,189.104 118.547,189.553 118.547 C 189.779 118.547,190.169 118.794,190.419 119.096 C 190.670 119.398,191.422 119.764,192.091 119.909 C 192.760 120.054,193.419 120.348,193.555 120.562 C 193.961 121.199,197.362 121.549,199.618 121.185 C 200.774 120.998,202.499 120.845,203.449 120.844 C 207.293 120.839,212.024 118.973,216.318 115.769 L 218.296 114.293 219.823 115.257 C 220.663 115.788,221.461 116.400,221.597 116.619 C 221.732 116.838,222.156 117.017,222.540 117.017 C 222.924 117.017,223.328 117.361,223.438 117.782 C 223.548 118.203,223.912 118.547,224.247 118.547 C 224.582 118.547,224.857 118.805,224.857 119.120 C 224.857 119.436,225.056 119.694,225.300 119.694 C 225.807 119.694,229.446 123.323,229.446 123.830 C 229.446 124.014,229.790 124.476,230.210 124.857 C 230.631 125.237,230.975 125.768,230.975 126.036 C 230.975 126.304,231.201 126.750,231.478 127.028 C 232.107 127.662,234.034 131.707,234.034 132.396 C 234.034 132.678,234.280 133.259,234.580 133.687 C 234.880 134.116,235.324 135.913,235.566 137.681 C 235.808 139.449,236.122 141.073,236.263 141.289 C 236.404 141.506,236.606 145.073,236.711 149.217 C 236.821 153.546,237.068 156.917,237.291 157.140 C 237.812 157.659,239.388 157.218,239.388 156.552 C 239.388 156.261,239.584 156.023,239.822 156.023 C 240.061 156.023,240.634 155.636,241.095 155.163 C 241.556 154.689,242.609 153.690,243.433 152.941 C 244.258 152.193,245.754 150.644,246.758 149.500 C 247.761 148.355,248.837 147.146,249.148 146.813 C 249.459 146.480,249.713 146.093,249.713 145.953 C 249.713 145.813,249.978 145.397,250.301 145.029 C 251.877 143.234,252.772 141.897,252.772 141.341 C 252.772 141.003,253.023 140.727,253.329 140.727 C 253.662 140.727,253.986 140.189,254.136 139.388 C 254.275 138.647,254.617 138.050,254.901 138.050 C 255.187 138.050,255.528 137.444,255.671 136.681 C 255.813 135.928,256.152 135.226,256.425 135.121 C 256.698 135.016,257.034 134.269,257.170 133.461 C 257.307 132.652,257.642 131.905,257.915 131.800 C 258.188 131.696,258.534 130.959,258.683 130.164 C 258.832 129.369,259.207 128.534,259.516 128.308 C 259.824 128.083,260.205 127.042,260.361 125.995 C 260.624 124.230,260.679 124.154,261.114 124.941 C 261.561 125.750,262.333 125.039,277.002 110.325 C 285.482 101.818,292.835 94.692,293.342 94.490 C 295.061 93.802,295.502 93.986,295.788 95.507 M141.085 99.331 C 141.065 101.126,140.993 101.362,140.695 100.616 C 140.371 99.806,140.575 97.132,140.960 97.132 C 141.042 97.132,141.098 98.121,141.085 99.331 M262.224 100.478 C 262.137 101.056,262.065 100.583,262.065 99.426 C 262.065 98.270,262.137 97.796,262.224 98.375 C 262.312 98.953,262.312 99.900,262.224 100.478 M142.161 122.429 C 142.680 122.948,142.832 126.960,142.333 126.960 C 142.164 126.960,141.810 126.745,141.544 126.482 C 141.157 126.099,140.978 126.156,140.640 126.769 C 140.408 127.189,137.306 130.445,133.746 134.003 C 130.187 137.561,127.118 140.884,126.927 141.387 C 126.562 142.347,125.813 142.249,125.813 141.242 C 125.813 140.920,125.468 140.218,125.048 139.684 C 124.627 139.149,124.283 138.231,124.283 137.643 C 124.283 137.055,124.004 136.296,123.664 135.956 C 122.970 135.262,122.419 130.489,122.985 130.071 C 123.173 129.932,126.941 126.122,131.358 121.605 C 141.289 111.449,140.806 111.651,141.300 117.457 C 141.521 120.050,141.885 122.153,142.161 122.429 M262.401 118.951 C 262.389 119.825,262.283 120.636,262.165 120.754 C 262.047 120.872,261.950 120.051,261.950 118.929 C 261.950 117.808,262.057 116.996,262.187 117.126 C 262.317 117.256,262.413 118.078,262.401 118.951 M122.078 128.573 C 121.683 129.392,121.656 129.365,121.632 128.126 C 121.612 127.121,121.712 126.913,122.053 127.253 C 122.383 127.583,122.389 127.927,122.078 128.573 M281.442 128.203 C 281.432 129.259,281.369 129.341,281.027 128.753 C 280.806 128.372,280.719 127.813,280.836 127.510 C 281.189 126.589,281.454 126.892,281.442 128.203 M279.924 133.155 C 279.924 134.044,279.809 134.264,279.503 133.958 C 279.272 133.727,279.197 133.176,279.338 132.734 C 279.703 131.584,279.924 131.742,279.924 133.155 M132.195 154.398 C 132.099 154.766,132.020 154.465,132.020 153.728 C 132.020 152.992,132.099 152.691,132.195 153.059 C 132.291 153.427,132.291 154.030,132.195 154.398 M234.226 184.321 C 234.356 184.532,234.097 184.704,233.652 184.704 C 233.207 184.704,232.948 184.532,233.078 184.321 C 233.208 184.111,233.467 183.939,233.652 183.939 C 233.838 183.939,234.096 184.111,234.226 184.321 M178.107 187.262 C 177.739 187.358,177.137 187.358,176.769 187.262 C 176.401 187.166,176.702 187.087,177.438 187.087 C 178.174 187.087,178.475 187.166,178.107 187.262 M226.291 187.262 C 225.923 187.358,225.320 187.358,224.952 187.262 C 224.584 187.166,224.885 187.087,225.621 187.087 C 226.358 187.087,226.659 187.166,226.291 187.262 M181.173 324.555 L 165.978 324.674 165.741 325.618 C 165.025 328.472,165.786 338.973,166.859 341.038 C 167.983 343.199,170.916 346.285,172.242 346.700 C 172.681 346.838,173.435 347.259,173.918 347.636 C 175.342 348.748,226.283 348.314,229.516 347.163 C 232.230 346.196,234.920 343.634,236.155 340.841 C 236.979 338.978,237.740 325.506,237.055 324.899 C 236.798 324.671,197.286 324.428,181.173 324.555 M210.258 325.735 C 210.339 326.302,210.068 326.861,209.494 327.313 C 209.004 327.698,204.297 332.307,199.033 337.555 C 188.160 348.397,189.503 347.610,181.864 347.610 C 176.929 347.610,175.908 347.382,175.908 346.280 C 175.908 345.991,193.889 327.700,195.970 325.873 C 197.704 324.350,210.045 324.230,210.258 325.735 " stroke="none" fill="#8d96a2" fill-rule="evenodd"></path><path id="path1" d="M0.000 191.205 L 0.000 382.409 200.000 382.409 L 400.000 382.409 400.000 191.205 L 400.000 0.000 200.000 0.000 L 0.000 0.000 0.000 191.205 M219.025 13.584 C 219.381 13.702,219.504 15.332,219.509 19.969 C 219.516 27.677,218.993 26.934,225.621 28.650 C 226.568 28.895,228.161 29.331,229.161 29.619 C 231.166 30.196,242.262 35.584,244.317 36.979 C 246.266 38.301,246.457 38.204,251.293 33.427 C 255.112 29.655,255.908 29.036,256.638 29.267 C 257.881 29.662,281.453 53.254,281.453 54.104 C 281.453 54.489,279.474 56.808,277.055 59.257 C 272.320 64.051,272.222 64.245,273.518 66.200 C 273.991 66.914,275.215 69.218,276.237 71.320 C 277.259 73.423,278.231 75.414,278.396 75.744 C 279.009 76.968,280.653 81.298,280.917 82.384 C 281.066 83.001,281.419 83.947,281.701 84.487 C 281.983 85.027,282.215 85.813,282.218 86.233 C 282.243 90.524,283.103 91.013,290.617 91.013 C 297.972 91.013,297.514 90.770,297.514 94.678 C 297.514 96.359,297.665 97.148,297.992 97.183 C 298.255 97.211,309.271 97.340,322.472 97.470 L 346.474 97.706 347.379 98.842 C 348.159 99.820,348.370 99.907,348.898 99.468 C 349.713 98.792,350.580 99.168,350.735 100.263 C 350.831 100.938,351.282 101.282,352.638 101.717 C 355.361 102.589,356.539 105.283,356.350 110.207 C 356.275 112.165,356.233 125.296,356.255 139.388 C 356.278 153.480,356.279 168.623,356.258 173.040 C 356.237 177.457,356.240 192.514,356.265 206.501 C 356.290 220.488,356.290 235.631,356.265 240.153 C 356.153 260.662,356.242 299.234,356.411 302.868 C 356.513 305.076,356.451 310.511,356.272 314.945 C 355.860 325.196,355.094 324.283,364.105 324.283 C 373.432 324.283,376.909 325.950,379.529 331.677 C 380.925 334.729,381.160 350.575,379.867 354.501 C 377.258 362.429,371.415 368.422,363.838 370.946 L 361.185 371.829 201.912 371.797 C 57.667 371.768,42.481 371.708,40.965 371.160 C 40.045 370.827,39.012 370.552,38.671 370.550 C 35.420 370.524,28.031 364.511,25.753 360.038 C 20.997 350.696,21.016 333.102,25.787 328.036 C 28.678 324.966,31.054 324.284,38.876 324.277 C 42.628 324.274,45.899 324.143,46.146 323.986 C 46.486 323.770,46.593 298.030,46.589 216.627 C 46.585 105.372,46.564 107.082,47.925 106.483 C 48.709 106.138,48.893 105.388,48.525 104.038 C 48.439 103.722,48.701 103.418,49.140 103.325 C 50.101 103.120,52.261 100.934,52.461 99.964 C 52.543 99.563,52.862 99.271,53.170 99.315 C 53.477 99.359,54.071 99.445,54.489 99.506 C 54.975 99.577,55.386 99.311,55.627 98.768 C 56.165 97.554,56.307 97.547,82.218 97.373 L 105.354 97.217 105.468 94.419 C 105.628 90.474,105.328 90.622,112.624 90.896 L 118.869 91.131 119.630 89.880 C 120.048 89.192,120.502 88.004,120.639 87.240 C 120.933 85.590,122.225 81.349,122.925 79.732 C 123.198 79.101,123.915 77.294,124.517 75.717 C 125.119 74.140,126.027 72.075,126.536 71.128 C 127.044 70.182,127.720 68.891,128.038 68.260 C 128.356 67.629,128.932 66.702,129.318 66.201 C 130.670 64.443,130.296 63.692,125.804 59.144 C 122.217 55.511,121.622 54.738,121.812 53.950 C 122.084 52.826,145.134 29.672,146.370 29.282 C 147.103 29.051,147.881 29.644,151.564 33.243 C 156.177 37.751,156.942 38.130,158.744 36.806 C 159.245 36.438,161.377 35.287,163.480 34.250 C 165.583 33.212,167.761 32.137,168.319 31.860 C 168.877 31.584,169.540 31.358,169.791 31.358 C 170.042 31.358,170.790 31.110,171.453 30.808 C 173.237 29.994,178.191 28.381,179.780 28.097 C 180.542 27.960,181.649 27.556,182.240 27.199 L 183.314 26.550 183.214 20.330 C 183.154 16.612,183.266 13.925,183.494 13.651 C 183.856 13.214,217.719 13.150,219.025 13.584 M100.106 43.314 C 99.998 43.999,71.227 73.040,70.655 73.040 C 69.956 73.040,69.598 70.830,69.598 66.514 C 69.598 64.004,69.555 61.936,69.503 61.919 C 69.450 61.902,58.910 61.798,46.080 61.689 C 33.250 61.579,22.631 61.376,22.481 61.238 C 21.914 60.712,21.945 26.181,22.513 25.492 C 22.992 24.912,25.076 24.857,46.289 24.857 L 69.539 24.857 69.664 19.751 C 69.863 11.652,68.483 10.936,85.547 27.986 C 95.340 37.771,100.176 42.863,100.106 43.314 M332.981 18.551 C 333.033 21.073,333.165 23.523,333.275 23.996 L 333.475 24.857 356.719 24.857 C 374.287 24.857,380.074 24.969,380.421 25.315 C 380.954 25.849,381.101 61.003,380.572 61.330 C 380.403 61.435,370.169 61.554,357.830 61.595 C 345.491 61.636,334.985 61.748,334.484 61.844 C 333.594 62.014,333.568 62.132,333.351 67.012 C 333.002 74.862,334.349 75.581,317.415 58.509 C 309.414 50.443,302.868 43.573,302.868 43.243 C 302.868 42.401,331.603 13.727,332.314 13.860 C 332.779 13.947,332.905 14.830,332.981 18.551 M191.396 50.647 C 186.227 51.605,182.703 52.545,181.203 53.365 C 180.645 53.670,179.981 53.920,179.729 53.920 C 179.109 53.920,171.988 57.484,169.565 59.007 C 163.131 63.050,155.958 70.186,151.693 76.787 C 150.148 79.178,146.463 86.364,146.463 86.987 C 146.463 87.140,146.206 87.807,145.892 88.470 C 140.943 98.911,141.485 120.064,147.019 132.505 C 149.388 137.831,153.614 144.639,156.405 147.625 C 156.721 147.963,157.511 148.829,158.161 149.550 C 161.621 153.388,165.177 156.124,165.208 154.971 C 165.213 154.814,165.293 151.071,165.386 146.654 C 165.555 138.719,166.445 133.134,167.816 131.415 C 168.009 131.173,168.292 130.565,168.446 130.064 C 169.843 125.518,176.006 118.391,182.365 113.969 C 183.408 113.244,183.400 113.183,181.942 111.023 C 179.079 106.782,177.850 103.259,177.563 98.470 C 177.362 95.137,177.554 93.530,178.679 89.101 C 179.775 84.786,183.790 79.485,187.954 76.854 C 191.187 74.811,192.147 74.459,197.514 73.353 C 208.619 71.062,220.398 78.357,224.488 90.057 C 225.715 93.566,225.887 102.655,224.763 104.589 C 224.396 105.220,224.095 105.954,224.094 106.220 C 224.091 106.932,221.922 110.653,220.812 111.851 L 219.851 112.887 220.948 113.900 C 221.552 114.458,223.154 115.860,224.510 117.017 C 234.089 125.192,237.213 132.544,237.711 148.079 C 237.969 156.113,237.780 155.794,240.727 153.178 C 243.953 150.313,244.359 149.905,244.359 149.528 C 244.359 149.314,244.505 149.140,244.682 149.140 C 244.974 149.140,248.304 145.093,249.713 143.026 C 250.029 142.563,250.674 141.651,251.147 140.999 C 251.620 140.347,252.008 139.583,252.008 139.302 C 252.008 139.021,252.250 138.697,252.547 138.584 C 252.843 138.470,253.201 137.916,253.341 137.353 C 253.482 136.790,253.821 136.071,254.095 135.755 C 254.370 135.440,254.721 134.751,254.876 134.226 C 255.031 133.700,255.363 133.011,255.615 132.696 C 256.081 132.111,257.551 128.303,258.642 124.857 C 262.739 111.908,260.251 90.794,253.445 80.766 C 251.836 78.395,251.389 77.687,250.622 76.291 C 250.276 75.660,249.757 75.006,249.470 74.838 C 249.183 74.669,248.948 74.356,248.948 74.142 C 248.948 72.087,239.958 63.251,234.034 59.483 C 233.088 58.881,231.883 58.112,231.358 57.773 C 226.428 54.598,218.980 52.002,212.046 51.044 C 209.732 50.724,206.979 50.304,205.927 50.110 C 202.632 49.504,196.299 49.738,191.396 50.647 M75.468 120.744 C 71.748 120.840,70.717 120.988,70.305 121.485 C 69.674 122.246,69.388 299.286,70.017 300.043 C 70.683 300.846,332.677 300.672,333.009 299.868 C 333.152 299.520,333.221 293.126,333.163 285.660 C 333.104 278.193,333.071 267.954,333.089 262.906 C 333.107 257.859,333.114 242.715,333.104 229.254 C 333.095 215.793,333.096 200.650,333.107 195.602 C 333.212 147.561,333.006 121.653,332.512 120.853 C 332.129 120.233,298.035 120.315,297.633 120.937 C 297.462 121.200,297.237 122.613,297.132 124.076 C 296.897 127.346,297.124 127.252,289.397 127.304 C 282.890 127.348,283.029 127.269,282.212 131.358 C 281.959 132.620,281.623 133.824,281.464 134.034 C 281.306 134.245,281.057 134.933,280.910 135.564 C 280.248 138.419,275.479 148.902,273.535 151.774 C 272.091 153.908,272.299 154.339,277.053 159.080 C 280.549 162.566,281.402 163.622,281.217 164.237 C 280.878 165.365,257.715 188.513,256.654 188.783 C 255.894 188.977,255.095 188.354,251.485 184.755 C 246.837 180.120,246.328 179.883,244.033 181.282 C 238.567 184.615,229.591 188.386,223.520 189.902 C 219.355 190.942,219.503 190.650,219.503 197.859 C 219.503 202.676,219.383 204.212,218.981 204.546 C 218.605 204.858,213.600 204.951,201.103 204.880 L 183.748 204.780 183.642 198.307 C 183.523 190.962,183.556 191.048,180.543 190.235 C 176.352 189.105,169.703 186.790,167.905 185.835 C 167.574 185.660,166.444 185.125,165.392 184.646 C 164.340 184.168,162.172 183.038,160.574 182.137 C 156.463 179.817,156.510 179.803,151.625 184.704 C 146.472 189.872,146.664 189.850,142.556 185.743 C 129.809 173.001,121.606 164.489,121.606 164.005 C 121.606 163.692,123.585 161.439,126.004 158.997 C 131.216 153.737,131.037 154.461,128.301 149.713 C 124.524 143.157,121.256 135.230,120.677 131.222 C 120.545 130.306,120.179 129.058,119.865 128.449 L 119.292 127.342 113.591 127.342 C 106.121 127.342,105.927 127.265,105.927 124.267 C 105.927 120.147,106.997 120.447,92.625 120.542 C 85.744 120.587,78.023 120.678,75.468 120.744 M152.199 223.876 C 159.861 226.201,165.201 232.195,165.201 238.471 C 165.201 239.930,165.014 239.991,159.465 240.360 C 155.612 240.616,153.728 240.235,153.728 239.199 C 153.728 238.638,152.558 236.659,151.241 234.990 C 150.205 233.678,134.174 233.612,132.415 234.913 C 129.472 237.090,129.458 237.140,129.329 246.070 C 129.081 263.266,129.550 266.604,132.672 269.885 C 133.918 271.195,149.350 271.224,151.254 269.920 C 152.751 268.894,154.111 266.955,154.111 265.846 C 154.111 265.024,154.207 265.010,159.656 265.010 C 163.845 265.010,165.197 265.126,165.186 265.488 C 165.152 266.576,163.427 271.772,162.809 272.647 C 162.442 273.167,162.141 273.727,162.141 273.890 C 162.141 274.496,157.612 279.159,157.023 279.159 C 156.822 279.159,156.385 279.394,156.053 279.681 C 153.633 281.773,137.156 282.814,131.582 281.227 C 129.642 280.674,125.902 278.971,125.430 278.424 C 125.325 278.302,124.733 277.944,124.115 277.627 C 122.861 276.986,119.929 272.857,119.241 270.764 C 118.454 268.369,118.344 238.972,119.112 236.345 C 120.131 232.866,121.280 230.911,123.729 228.489 C 126.964 225.291,128.619 224.461,134.034 223.323 C 136.737 222.755,149.817 223.153,152.199 223.876 M203.059 223.321 C 206.314 223.947,208.110 224.497,209.671 225.345 C 211.963 226.591,215.741 230.497,216.780 232.696 C 217.277 233.748,218.007 235.244,218.402 236.022 C 219.814 238.801,218.938 246.694,216.965 248.978 C 216.678 249.311,216.444 249.708,216.444 249.861 C 216.444 250.460,214.051 253.072,212.235 254.458 C 209.883 256.251,209.791 257.142,211.663 259.985 C 212.400 261.103,213.002 262.162,213.002 262.339 C 213.002 262.516,213.228 262.888,213.505 263.166 C 214.081 263.744,216.060 267.943,216.064 268.593 C 216.065 268.831,216.335 269.541,216.665 270.172 C 216.994 270.803,217.514 272.610,217.820 274.187 C 219.455 282.609,219.906 281.836,213.358 281.836 C 210.428 281.836,208.028 281.793,208.024 281.740 C 207.818 278.844,207.212 274.775,206.938 274.442 C 206.735 274.197,206.448 273.349,206.301 272.558 C 206.153 271.767,205.884 271.028,205.704 270.917 C 205.523 270.805,205.043 269.962,204.636 269.042 C 204.159 267.964,202.223 265.694,199.189 262.653 L 194.481 257.935 189.637 257.802 C 186.340 257.712,184.516 257.817,183.927 258.132 L 183.062 258.596 183.335 270.393 L 183.609 282.190 182.658 282.429 C 181.205 282.794,172.937 282.461,172.498 282.021 C 172.244 281.767,172.096 272.091,172.069 254.010 L 172.028 226.387 172.849 225.343 C 174.770 222.901,174.464 222.948,188.528 222.970 C 195.574 222.981,202.113 223.139,203.059 223.321 M235.129 224.421 C 236.530 225.823,238.632 229.585,238.616 230.665 C 238.610 231.041,247.019 248.253,253.900 261.950 C 254.058 262.266,254.619 262.576,255.146 262.640 C 256.051 262.749,256.618 261.725,265.581 243.787 C 275.943 223.047,275.758 223.327,279.130 223.327 C 284.826 223.327,284.882 223.773,284.608 266.837 L 284.512 281.857 279.094 281.750 L 273.676 281.644 273.585 269.790 C 273.455 252.968,273.494 253.019,268.390 262.956 C 266.351 266.925,264.359 270.774,263.962 271.511 C 259.424 279.934,259.384 279.990,257.180 281.026 C 252.831 283.070,249.281 280.560,247.990 274.525 C 247.837 273.814,247.450 272.715,247.129 272.084 C 246.808 271.453,246.424 270.679,246.277 270.363 C 246.129 270.048,245.821 269.446,245.591 269.025 C 245.361 268.604,243.721 265.310,241.946 261.705 C 237.901 253.486,238.318 254.113,237.429 254.919 C 236.730 255.551,236.693 256.215,236.712 267.850 C 236.722 274.596,236.727 280.502,236.721 280.975 C 236.711 281.826,236.652 281.836,231.358 281.836 C 226.510 281.836,226.005 281.772,226.014 281.166 C 226.019 280.798,225.976 268.623,225.918 254.111 C 225.799 224.244,225.636 225.896,228.887 223.899 C 231.288 222.424,233.300 222.592,235.129 224.421 M183.429 234.289 C 182.597 235.121,183.179 246.641,184.064 246.863 C 186.800 247.549,204.031 246.849,205.100 246.007 C 209.088 242.867,208.996 237.960,204.891 234.931 C 203.682 234.040,184.260 233.459,183.429 234.289 " stroke="none" fill="#f7f7f8" fill-rule="evenodd"></path><path id="path2" d="M221.366 31.799 C 215.672 37.005,205.354 47.543,205.354 48.151 C 205.354 48.329,207.204 48.596,209.465 48.745 C 211.913 48.905,213.918 49.233,214.422 49.555 C 215.798 50.433,219.481 50.287,219.240 49.364 C 219.095 48.810,220.682 46.986,225.777 41.850 C 229.477 38.120,232.505 34.763,232.505 34.391 C 232.505 32.916,232.112 32.555,230.745 32.776 C 229.359 33.001,227.916 32.150,227.916 31.107 C 227.916 30.426,227.551 30.458,226.718 31.213 C 226.084 31.786,225.920 31.774,224.535 31.052 L 223.037 30.271 221.366 31.799 M139.153 46.627 C 127.527 58.273,127.732 57.945,130.306 60.804 C 132.261 62.976,132.874 64.765,132.079 65.978 C 131.167 67.370,131.780 67.844,133.201 66.844 C 134.751 65.753,152.331 48.415,156.853 43.519 C 159.964 40.149,160.237 39.734,159.831 38.975 L 159.384 38.141 158.457 39.219 C 157.294 40.573,155.850 40.190,153.286 37.846 C 150.403 35.212,150.790 34.972,139.153 46.627 M161.648 37.476 C 161.538 37.896,161.604 38.337,161.795 38.454 C 161.986 38.572,162.141 38.228,162.141 37.690 C 162.141 36.518,161.924 36.424,161.648 37.476 M190.631 48.215 C 189.644 48.439,189.738 48.482,191.300 48.521 C 192.299 48.546,193.117 48.500,193.117 48.419 C 193.117 48.088,191.703 47.972,190.631 48.215 M269.309 50.976 C 267.680 52.534,262.536 57.625,257.878 62.288 C 248.997 71.178,248.855 71.381,250.342 73.040 C 251.690 74.544,252.772 76.059,252.772 76.441 C 252.772 76.674,253.117 77.208,253.537 77.629 C 253.958 78.050,254.302 78.652,254.302 78.967 C 254.302 79.283,254.529 79.541,254.806 79.541 C 255.615 79.541,268.158 66.707,269.297 64.714 C 269.867 63.716,272.147 61.020,274.364 58.724 C 279.128 53.790,279.060 54.136,275.862 51.134 C 272.255 47.747,272.672 47.757,269.309 50.976 M184.417 49.977 C 184.785 50.073,185.387 50.073,185.755 49.977 C 186.123 49.881,185.822 49.802,185.086 49.802 C 184.350 49.802,184.049 49.881,184.417 49.977 M143.875 87.954 C 143.875 88.690,143.953 88.991,144.049 88.623 C 144.146 88.255,144.146 87.653,144.049 87.285 C 143.953 86.917,143.875 87.218,143.875 87.954 M142.170 91.491 C 142.078 91.754,142.128 92.400,142.282 92.925 C 142.526 93.757,142.567 93.695,142.601 92.447 C 142.639 90.991,142.474 90.625,142.170 91.491 M260.509 92.543 C 260.509 93.279,260.588 93.580,260.684 93.212 C 260.780 92.844,260.780 92.242,260.684 91.874 C 260.588 91.506,260.509 91.807,260.509 92.543 M293.342 94.490 C 292.835 94.692,285.482 101.818,277.002 110.325 C 262.333 125.039,261.561 125.750,261.114 124.941 C 260.679 124.154,260.624 124.230,260.361 125.995 C 260.205 127.042,259.824 128.083,259.516 128.308 C 259.207 128.534,258.832 129.369,258.683 130.164 C 258.534 130.959,258.188 131.696,257.915 131.800 C 257.642 131.905,257.307 132.652,257.170 133.461 C 257.034 134.269,256.698 135.016,256.425 135.121 C 256.152 135.226,255.813 135.928,255.671 136.681 C 255.528 137.444,255.187 138.050,254.901 138.050 C 254.617 138.050,254.275 138.647,254.136 139.388 C 253.986 140.189,253.662 140.727,253.329 140.727 C 253.023 140.727,252.772 141.003,252.772 141.341 C 252.772 141.897,251.877 143.234,250.301 145.029 C 249.978 145.397,249.713 145.813,249.713 145.953 C 249.713 146.093,249.459 146.480,249.148 146.813 C 248.837 147.146,247.761 148.355,246.758 149.500 C 245.754 150.644,244.258 152.193,243.433 152.941 C 242.609 153.690,241.556 154.689,241.095 155.163 C 240.634 155.636,240.061 156.023,239.822 156.023 C 239.584 156.023,239.388 156.261,239.388 156.552 C 239.388 157.218,237.812 157.659,237.291 157.140 C 237.068 156.917,236.821 153.546,236.711 149.217 C 236.606 145.073,236.404 141.506,236.263 141.289 C 236.122 141.073,235.808 139.449,235.566 137.681 C 235.324 135.913,234.880 134.116,234.580 133.687 C 234.280 133.259,234.034 132.678,234.034 132.396 C 234.034 131.707,232.107 127.662,231.478 127.028 C 231.201 126.750,230.975 126.304,230.975 126.036 C 230.975 125.768,230.631 125.237,230.210 124.857 C 229.790 124.476,229.446 124.014,229.446 123.830 C 229.446 123.323,225.807 119.694,225.300 119.694 C 225.056 119.694,224.857 119.436,224.857 119.120 C 224.857 118.805,224.582 118.547,224.247 118.547 C 223.912 118.547,223.548 118.203,223.438 117.782 C 223.328 117.361,222.924 117.017,222.540 117.017 C 222.156 117.017,221.732 116.838,221.597 116.619 C 221.461 116.400,220.663 115.788,219.823 115.257 L 218.296 114.293 216.318 115.769 C 212.024 118.973,207.293 120.839,203.449 120.844 C 202.499 120.845,200.774 120.998,199.618 121.185 C 197.362 121.549,193.961 121.199,193.555 120.562 C 193.419 120.348,192.760 120.054,192.091 119.909 C 191.422 119.764,190.670 119.398,190.419 119.096 C 190.169 118.794,189.779 118.547,189.553 118.547 C 189.104 118.547,186.475 116.835,185.310 115.783 C 184.449 115.006,183.006 115.221,181.811 116.303 C 181.377 116.696,180.731 117.017,180.377 117.017 C 180.022 117.017,179.732 117.291,179.732 117.627 C 179.732 117.962,179.394 118.325,178.980 118.433 C 178.566 118.541,178.125 118.955,177.998 119.353 C 177.872 119.751,177.616 120.076,177.429 120.076 C 176.972 120.076,175.312 121.762,175.020 122.524 C 174.891 122.860,174.521 123.136,174.199 123.136 C 173.877 123.136,173.614 123.453,173.614 123.841 C 173.614 124.229,173.270 124.858,172.849 125.239 C 172.428 125.620,172.084 126.163,172.084 126.446 C 172.084 126.728,171.740 127.304,171.319 127.725 C 170.899 128.145,170.554 128.901,170.554 129.405 C 170.554 129.908,170.306 130.415,170.002 130.532 C 169.698 130.648,169.335 131.398,169.194 132.198 C 169.054 132.998,168.684 134.058,168.372 134.555 C 167.682 135.653,167.161 140.375,166.995 147.036 C 166.768 156.182,166.445 157.361,164.165 157.361 C 162.993 157.361,149.101 170.501,142.442 177.907 C 141.360 179.111,140.520 179.735,140.166 179.599 C 138.632 179.010,139.522 180.434,142.867 183.919 C 146.808 188.025,147.030 188.178,147.338 186.998 C 147.448 186.577,147.793 186.233,148.103 186.233 C 148.414 186.233,148.758 185.889,148.868 185.468 C 148.978 185.048,149.322 184.704,149.633 184.704 C 149.943 184.704,150.288 184.359,150.398 183.939 C 150.508 183.518,150.852 183.174,151.162 183.174 C 151.473 183.174,151.817 182.830,151.927 182.409 C 152.037 181.989,152.401 181.644,152.737 181.644 C 153.072 181.644,153.346 181.459,153.346 181.233 C 153.346 180.323,155.586 178.585,156.758 178.585 C 157.687 178.585,157.935 178.421,157.935 177.807 C 157.935 177.307,160.329 174.650,164.624 170.382 C 168.303 166.727,171.483 163.291,171.689 162.747 C 172.207 161.387,173.332 161.469,176.455 163.098 C 177.868 163.834,179.286 164.436,179.607 164.436 C 179.928 164.436,180.733 164.693,181.395 165.007 C 183.100 165.816,187.739 167.177,189.101 167.269 C 189.732 167.311,190.690 167.476,191.230 167.636 C 191.770 167.795,193.147 167.978,194.289 168.042 C 195.432 168.107,197.055 168.350,197.897 168.583 C 200.054 169.180,203.351 169.124,205.617 168.451 C 206.680 168.136,208.389 167.894,209.415 167.914 C 211.638 167.959,214.478 167.448,216.778 166.590 C 219.934 165.413,223.137 166.018,220.626 167.316 C 218.654 168.336,185.027 202.270,185.260 203.005 C 185.527 203.846,196.826 203.820,198.662 202.974 C 199.293 202.683,220.803 181.381,246.463 155.636 C 272.122 129.891,293.523 108.536,294.020 108.182 C 295.760 106.942,296.434 104.625,296.235 100.575 C 295.916 94.065,295.674 93.557,293.342 94.490 M140.571 98.417 C 140.438 99.124,140.494 100.114,140.695 100.616 C 140.993 101.362,141.065 101.126,141.085 99.331 C 141.112 96.849,140.927 96.519,140.571 98.417 M262.065 99.426 C 262.065 100.583,262.137 101.056,262.224 100.478 C 262.312 99.900,262.312 98.953,262.224 98.375 C 262.137 97.796,262.065 98.270,262.065 99.426 M140.153 113.178 C 139.732 113.296,135.774 117.088,131.358 121.605 C 126.941 126.122,123.173 129.932,122.985 130.071 C 122.419 130.489,122.970 135.262,123.664 135.956 C 124.004 136.296,124.283 137.055,124.283 137.643 C 124.283 138.231,124.627 139.149,125.048 139.684 C 125.468 140.218,125.813 140.920,125.813 141.242 C 125.813 142.249,126.562 142.347,126.927 141.387 C 127.118 140.884,130.187 137.561,133.746 134.003 C 137.306 130.445,140.408 127.189,140.640 126.769 C 140.978 126.156,141.157 126.099,141.544 126.482 C 141.810 126.745,142.164 126.960,142.333 126.960 C 142.832 126.960,142.680 122.948,142.161 122.429 C 141.885 122.153,141.521 120.050,141.300 117.457 C 140.941 113.233,140.872 112.977,140.153 113.178 M261.950 118.929 C 261.950 120.051,262.047 120.872,262.165 120.754 C 262.460 120.459,262.479 117.418,262.187 117.126 C 262.057 116.996,261.950 117.808,261.950 118.929 M121.632 128.126 C 121.656 129.365,121.683 129.392,122.078 128.573 C 122.389 127.927,122.383 127.583,122.053 127.253 C 121.712 126.913,121.612 127.121,121.632 128.126 M280.836 127.510 C 280.719 127.813,280.806 128.372,281.027 128.753 C 281.369 129.341,281.432 129.259,281.442 128.203 C 281.454 126.892,281.189 126.589,280.836 127.510 M279.338 132.734 C 279.197 133.176,279.272 133.727,279.503 133.958 C 279.809 134.264,279.924 134.044,279.924 133.155 C 279.924 131.742,279.703 131.584,279.338 132.734 M132.020 153.728 C 132.020 154.465,132.099 154.766,132.195 154.398 C 132.291 154.030,132.291 153.427,132.195 153.059 C 132.099 152.691,132.020 152.992,132.020 153.728 M233.078 184.321 C 232.948 184.532,233.207 184.704,233.652 184.704 C 234.097 184.704,234.356 184.532,234.226 184.321 C 234.096 184.111,233.838 183.939,233.652 183.939 C 233.467 183.939,233.208 184.111,233.078 184.321 M176.769 187.262 C 177.137 187.358,177.739 187.358,178.107 187.262 C 178.475 187.166,178.174 187.087,177.438 187.087 C 176.702 187.087,176.401 187.166,176.769 187.262 M224.952 187.262 C 225.320 187.358,225.923 187.358,226.291 187.262 C 226.659 187.166,226.358 187.087,225.621 187.087 C 224.885 187.087,224.584 187.166,224.952 187.262 M197.581 325.215 C 196.777 325.505,196.052 325.801,195.970 325.873 C 193.889 327.700,175.908 345.991,175.908 346.280 C 175.908 347.382,176.929 347.610,181.864 347.610 C 189.503 347.610,188.160 348.397,199.033 337.555 C 204.297 332.307,209.004 327.698,209.494 327.313 C 212.289 325.113,202.601 323.408,197.581 325.215 " stroke="none" fill="#7f8a9c" fill-rule="evenodd"></path><path id="path3" d="M183.494 13.651 C 183.266 13.925,183.154 16.612,183.214 20.330 L 183.314 26.550 182.240 27.199 C 181.649 27.556,180.542 27.960,179.780 28.097 C 178.191 28.381,173.237 29.994,171.453 30.808 C 170.790 31.110,170.042 31.358,169.791 31.358 C 169.540 31.358,168.877 31.584,168.319 31.860 C 167.761 32.137,165.583 33.212,163.480 34.250 C 161.377 35.287,159.245 36.438,158.744 36.806 C 156.942 38.130,156.177 37.751,151.564 33.243 C 147.881 29.644,147.103 29.051,146.370 29.282 C 145.134 29.672,122.084 52.826,121.812 53.950 C 121.622 54.738,122.217 55.511,125.804 59.144 C 130.296 63.692,130.670 64.443,129.318 66.201 C 128.932 66.702,128.356 67.629,128.038 68.260 C 127.720 68.891,127.044 70.182,126.536 71.128 C 126.027 72.075,125.119 74.140,124.517 75.717 C 123.915 77.294,123.198 79.101,122.925 79.732 C 122.225 81.349,120.933 85.590,120.639 87.240 C 120.502 88.004,120.048 89.192,119.630 89.880 L 118.869 91.131 112.624 90.896 C 105.328 90.622,105.628 90.474,105.468 94.419 L 105.354 97.217 82.218 97.373 C 56.307 97.547,56.165 97.554,55.627 98.768 C 55.386 99.311,54.975 99.577,54.489 99.506 C 54.071 99.445,53.477 99.359,53.170 99.315 C 52.862 99.271,52.543 99.563,52.461 99.964 C 52.261 100.934,50.101 103.120,49.140 103.325 C 48.701 103.418,48.439 103.722,48.525 104.038 C 48.893 105.388,48.709 106.138,47.925 106.483 C 46.564 107.082,46.585 105.372,46.589 216.627 C 46.593 298.030,46.486 323.770,46.146 323.986 C 45.899 324.143,42.628 324.274,38.876 324.277 C 31.054 324.284,28.678 324.966,25.787 328.036 C 21.016 333.102,20.997 350.696,25.753 360.038 C 28.031 364.511,35.420 370.524,38.671 370.550 C 39.012 370.552,40.045 370.827,40.965 371.160 C 42.481 371.708,57.667 371.768,201.912 371.797 L 361.185 371.829 363.838 370.946 C 371.415 368.422,377.258 362.429,379.867 354.501 C 381.160 350.575,380.925 334.729,379.529 331.677 C 376.909 325.950,373.432 324.283,364.105 324.283 C 355.094 324.283,355.860 325.196,356.272 314.945 C 356.451 310.511,356.513 305.076,356.411 302.868 C 356.242 299.234,356.153 260.662,356.265 240.153 C 356.290 235.631,356.290 220.488,356.265 206.501 C 356.240 192.514,356.237 177.457,356.258 173.040 C 356.279 168.623,356.278 153.480,356.255 139.388 C 356.233 125.296,356.275 112.165,356.350 110.207 C 356.539 105.283,355.361 102.589,352.638 101.717 C 351.282 101.282,350.831 100.938,350.735 100.263 C 350.580 99.168,349.713 98.792,348.898 99.468 C 348.370 99.907,348.159 99.820,347.379 98.842 L 346.474 97.706 322.472 97.470 C 309.271 97.340,298.255 97.211,297.992 97.183 C 297.665 97.148,297.514 96.359,297.514 94.678 C 297.514 90.770,297.972 91.013,290.617 91.013 C 283.103 91.013,282.243 90.524,282.218 86.233 C 282.215 85.813,281.983 85.027,281.701 84.487 C 281.419 83.947,281.066 83.001,280.917 82.384 C 280.653 81.298,279.009 76.968,278.396 75.744 C 278.231 75.414,277.259 73.423,276.237 71.320 C 275.215 69.218,273.991 66.914,273.518 66.200 C 272.222 64.245,272.320 64.051,277.055 59.257 C 279.474 56.808,281.453 54.489,281.453 54.104 C 281.453 53.254,257.881 29.662,256.638 29.267 C 255.908 29.036,255.112 29.655,251.293 33.427 C 246.457 38.204,246.266 38.301,244.317 36.979 C 242.262 35.584,231.166 30.196,229.161 29.619 C 228.161 29.331,226.568 28.895,225.621 28.650 C 218.993 26.934,219.516 27.677,219.509 19.969 C 219.504 15.332,219.381 13.702,219.025 13.584 C 217.719 13.150,183.856 13.214,183.494 13.651 M70.336 13.990 C 69.939 14.467,69.756 16.039,69.664 19.751 L 69.539 24.857 46.289 24.857 C 25.076 24.857,22.992 24.912,22.513 25.492 C 21.945 26.181,21.914 60.712,22.481 61.238 C 22.631 61.376,33.250 61.579,46.080 61.689 C 58.910 61.798,69.450 61.902,69.503 61.919 C 69.555 61.936,69.598 64.004,69.598 66.514 C 69.598 70.830,69.956 73.040,70.655 73.040 C 71.227 73.040,99.998 43.999,100.106 43.314 C 100.303 42.050,71.003 13.188,70.336 13.990 M317.304 28.198 C 309.364 36.142,302.868 42.913,302.868 43.243 C 302.868 43.573,309.414 50.443,317.415 58.509 C 334.349 75.581,333.002 74.862,333.351 67.012 C 333.568 62.132,333.594 62.014,334.484 61.844 C 334.985 61.748,345.491 61.636,357.830 61.595 C 370.169 61.554,380.403 61.435,380.572 61.330 C 381.101 61.003,380.954 25.849,380.421 25.315 C 380.074 24.969,374.287 24.857,356.719 24.857 L 333.475 24.857 333.275 23.996 C 333.165 23.523,333.033 21.073,332.981 18.551 C 332.905 14.830,332.779 13.947,332.314 13.860 C 331.985 13.799,325.568 19.928,317.304 28.198 M218.738 20.211 C 218.738 28.160,218.872 28.532,221.860 28.879 C 223.128 29.026,224.622 29.385,225.180 29.676 C 225.738 29.967,226.628 30.207,227.157 30.208 C 227.686 30.209,228.761 30.554,229.545 30.975 C 230.330 31.396,231.294 31.740,231.687 31.740 C 232.080 31.740,232.839 32.084,233.374 32.505 C 233.909 32.925,234.550 33.270,234.799 33.270 C 235.048 33.270,235.690 33.614,236.225 34.034 C 236.759 34.455,237.448 34.799,237.754 34.799 C 238.061 34.799,238.749 35.143,239.284 35.564 C 239.819 35.985,240.539 36.329,240.884 36.329 C 241.230 36.329,241.807 36.673,242.167 37.094 C 242.528 37.514,243.082 37.859,243.400 37.859 C 243.717 37.859,244.321 38.203,244.742 38.623 C 246.115 39.997,246.881 39.587,251.524 34.990 C 253.968 32.572,256.192 30.593,256.467 30.593 C 256.742 30.593,259.286 32.916,262.121 35.755 C 264.955 38.595,267.433 40.918,267.627 40.918 C 267.821 40.918,268.070 41.262,268.180 41.683 C 268.290 42.103,268.654 42.447,268.989 42.447 C 269.324 42.447,269.604 42.663,269.611 42.925 C 269.617 43.188,270.487 44.178,271.543 45.124 C 275.813 48.951,279.869 53.117,279.984 53.794 C 280.067 54.284,278.743 55.899,275.837 58.854 C 271.262 63.508,270.547 64.762,271.864 65.828 C 272.300 66.181,272.658 66.674,272.658 66.923 C 272.658 67.171,273.002 67.812,273.423 68.347 C 273.843 68.882,274.187 69.533,274.187 69.794 C 274.187 70.056,274.434 70.475,274.736 70.725 C 275.038 70.976,275.394 71.673,275.526 72.275 C 275.658 72.877,276.015 73.576,276.319 73.828 C 276.622 74.080,276.980 74.967,277.113 75.799 C 277.246 76.631,277.568 77.394,277.829 77.494 C 278.090 77.594,278.418 78.393,278.558 79.268 C 278.698 80.143,279.040 81.122,279.318 81.443 C 279.596 81.764,279.917 82.771,280.032 83.682 C 280.147 84.592,280.503 85.626,280.824 85.981 C 281.154 86.345,281.458 87.531,281.526 88.714 C 281.692 91.639,282.039 91.766,289.921 91.773 C 295.619 91.778,296.312 91.848,296.541 92.445 C 296.871 93.304,296.854 114.950,296.519 121.288 C 296.213 127.074,296.972 126.565,288.637 126.572 C 281.894 126.578,282.163 126.462,281.686 129.581 C 281.546 130.497,281.178 131.736,280.869 132.335 C 280.559 132.933,280.306 133.821,280.306 134.308 C 280.306 134.795,279.962 135.835,279.541 136.620 C 279.120 137.405,278.776 138.315,278.776 138.642 C 278.776 138.969,278.453 139.873,278.058 140.651 C 277.663 141.429,276.949 142.925,276.472 143.977 C 275.995 145.029,275.463 146.147,275.291 146.463 C 275.119 146.778,274.440 148.069,273.781 149.331 C 273.123 150.593,272.343 151.897,272.048 152.229 C 270.790 153.643,271.348 154.650,275.908 159.184 C 278.327 161.589,280.306 163.746,280.306 163.976 C 280.306 164.498,257.171 187.685,256.496 187.840 C 256.226 187.902,253.994 185.931,251.537 183.460 C 246.927 178.824,245.846 178.211,244.709 179.581 C 244.429 179.918,243.848 180.357,243.419 180.557 C 242.990 180.756,241.950 181.337,241.109 181.848 C 240.268 182.358,239.321 182.887,239.006 183.021 C 237.934 183.479,235.188 184.701,233.556 185.446 C 232.663 185.854,231.415 186.312,230.784 186.463 C 230.153 186.613,229.293 186.948,228.872 187.207 C 228.451 187.465,227.425 187.797,226.591 187.944 C 225.757 188.091,224.638 188.432,224.105 188.702 C 223.572 188.972,222.322 189.312,221.328 189.456 C 218.914 189.807,218.956 189.678,218.738 197.323 L 218.547 204.015 201.434 204.115 L 184.321 204.214 184.303 203.350 C 184.292 202.875,184.294 200.076,184.306 197.132 C 184.332 190.981,184.053 190.058,182.022 189.574 C 179.726 189.027,175.385 187.695,174.187 187.171 C 173.556 186.894,172.610 186.559,172.084 186.424 C 171.558 186.290,170.612 185.945,169.981 185.657 C 168.328 184.903,165.547 183.663,164.436 183.185 C 163.910 182.959,162.792 182.354,161.950 181.842 C 161.109 181.329,159.961 180.719,159.400 180.485 C 158.838 180.252,158.284 179.815,158.169 179.514 C 157.598 178.028,156.038 178.966,151.456 183.550 C 148.308 186.699,146.690 188.062,146.282 187.905 C 145.725 187.691,139.197 181.361,139.197 181.034 C 139.197 180.951,135.497 177.179,130.975 172.653 C 126.453 168.127,122.754 164.212,122.755 163.952 C 122.756 163.692,124.735 161.536,127.153 159.159 C 131.616 154.773,132.500 153.228,131.071 152.313 C 130.493 151.944,130.046 151.139,126.868 144.742 C 123.559 138.080,122.098 134.107,121.256 129.479 C 120.723 126.549,121.360 126.796,113.767 126.577 C 110.120 126.472,106.993 126.243,106.819 126.068 C 106.644 125.893,106.461 118.106,106.411 108.764 L 106.322 91.778 112.568 91.778 C 120.619 91.778,121.053 91.633,121.340 88.851 C 121.460 87.683,121.828 86.431,122.156 86.068 C 122.485 85.705,122.753 84.800,122.753 84.056 C 122.753 83.283,123.081 82.287,123.518 81.731 C 123.939 81.196,124.283 80.225,124.283 79.573 C 124.283 78.860,124.588 78.125,125.048 77.732 C 125.517 77.329,125.813 76.603,125.813 75.851 C 125.813 75.176,126.073 74.364,126.391 74.046 C 126.710 73.727,127.076 72.937,127.206 72.290 C 127.335 71.642,127.594 71.018,127.780 70.903 C 127.966 70.788,128.380 70.146,128.700 69.477 C 129.701 67.383,130.513 65.991,131.040 65.463 C 132.192 64.311,131.845 63.792,125.143 56.653 C 122.549 53.888,122.520 54.008,126.769 49.875 C 128.767 47.932,130.402 46.174,130.402 45.969 C 130.402 45.764,130.746 45.506,131.166 45.396 C 131.587 45.286,131.931 44.942,131.931 44.631 C 131.931 44.320,132.275 43.976,132.696 43.866 C 133.117 43.756,133.461 43.412,133.461 43.101 C 133.461 42.791,133.805 42.447,134.226 42.337 C 134.646 42.227,134.990 41.862,134.990 41.527 C 134.990 41.192,135.265 40.918,135.600 40.918 C 135.935 40.918,136.299 40.574,136.409 40.153 C 136.519 39.732,136.761 39.388,136.946 39.388 C 137.397 39.388,145.315 31.404,145.315 30.950 C 145.315 30.753,145.746 30.593,146.272 30.593 C 146.797 30.593,147.228 30.770,147.228 30.987 C 147.228 31.204,147.488 31.482,147.807 31.604 C 148.126 31.726,150.061 33.437,152.109 35.405 C 155.871 39.021,157.422 39.806,158.203 38.490 C 158.530 37.937,159.243 37.520,162.765 35.818 C 164.000 35.222,165.646 34.404,166.424 34.002 C 167.202 33.599,168.165 33.270,168.564 33.270 C 168.963 33.270,169.687 32.925,170.172 32.505 C 170.657 32.084,171.560 31.740,172.178 31.740 C 172.796 31.740,173.739 31.396,174.274 30.975 C 174.853 30.520,175.826 30.210,176.678 30.210 C 177.465 30.210,178.307 29.971,178.550 29.679 C 178.792 29.387,179.920 29.032,181.055 28.890 C 184.107 28.509,184.133 28.441,184.112 20.780 L 184.095 14.149 201.416 14.149 L 218.738 14.149 218.738 20.211 M84.801 28.667 C 94.995 38.781,98.662 42.651,98.662 43.296 C 98.662 44.278,71.122 72.141,70.633 71.653 C 70.485 71.505,70.363 69.185,70.363 66.498 C 70.363 63.375,70.212 61.520,69.945 61.355 C 69.715 61.212,59.175 61.018,46.523 60.922 C 33.870 60.826,23.301 60.678,23.036 60.594 C 22.656 60.474,22.575 56.788,22.654 43.127 L 22.753 25.813 46.463 25.621 L 70.172 25.430 70.272 20.650 C 70.363 16.347,70.502 14.914,70.831 14.914 C 70.892 14.914,77.178 21.103,84.801 28.667 M332.696 20.299 L 332.887 25.430 356.478 25.529 L 380.069 25.627 380.306 27.250 C 380.581 29.138,380.400 60.263,380.112 60.551 C 380.005 60.658,369.863 60.786,357.574 60.837 C 345.284 60.888,334.702 61.037,334.058 61.168 L 332.887 61.407 332.793 65.789 C 332.636 73.119,334.167 73.933,318.331 58.102 C 307.885 47.658,304.398 43.946,304.398 43.270 C 304.398 42.287,331.384 14.815,332.122 15.047 C 332.339 15.115,332.587 17.386,332.696 20.299 M196.367 49.012 C 192.689 49.175,190.082 49.478,189.101 49.856 C 188.260 50.179,187.055 50.453,186.424 50.464 C 185.793 50.474,184.816 50.724,184.251 51.018 C 183.687 51.312,182.655 51.675,181.957 51.825 C 181.259 51.974,180.258 52.323,179.732 52.599 C 179.207 52.876,177.744 53.551,176.482 54.100 C 175.220 54.648,173.929 55.262,173.614 55.465 C 173.298 55.668,172.662 55.997,172.201 56.198 C 171.739 56.398,170.493 57.172,169.432 57.918 C 168.371 58.663,167.397 59.273,167.268 59.273 C 167.138 59.273,166.491 59.712,165.830 60.248 C 165.168 60.783,163.941 61.773,163.102 62.446 C 161.139 64.023,156.566 68.596,154.990 70.559 C 154.316 71.398,153.326 72.625,152.791 73.287 C 152.255 73.948,151.816 74.591,151.816 74.717 C 151.816 74.842,151.128 75.935,150.287 77.147 C 149.446 78.359,148.758 79.544,148.758 79.781 C 148.757 80.018,148.510 80.417,148.208 80.668 C 147.906 80.919,147.551 81.616,147.419 82.218 C 147.287 82.820,146.936 83.514,146.639 83.760 C 146.343 84.006,145.990 84.794,145.856 85.511 C 145.721 86.228,145.463 86.907,145.283 87.018 C 145.102 87.130,144.767 87.946,144.539 88.831 C 144.310 89.716,143.895 90.956,143.616 91.587 C 143.337 92.218,142.986 93.595,142.836 94.646 C 142.686 95.698,142.406 96.852,142.214 97.211 C 140.920 99.630,141.077 115.365,142.447 120.459 C 142.758 121.616,143.014 123.138,143.016 123.843 C 143.019 124.547,143.269 125.666,143.572 126.328 C 143.875 126.991,144.310 128.258,144.539 129.143 C 144.767 130.028,145.121 130.855,145.326 130.982 C 145.530 131.108,145.698 131.486,145.698 131.821 C 145.698 132.448,147.885 137.322,148.322 137.671 C 148.456 137.777,149.055 138.795,149.652 139.932 C 150.831 142.174,153.622 146.085,154.395 146.577 C 154.660 146.746,154.876 147.066,154.876 147.290 C 154.876 147.726,162.731 155.641,163.163 155.641 C 163.304 155.641,163.750 155.939,164.154 156.305 C 165.634 157.645,165.964 156.255,165.982 148.588 C 165.991 144.790,166.157 140.994,166.351 140.153 C 166.545 139.312,166.944 137.505,167.237 136.138 C 168.376 130.839,171.698 124.826,175.903 120.451 C 178.272 117.986,181.643 115.279,182.799 114.912 C 184.444 114.390,184.838 112.611,183.623 111.201 C 183.026 110.509,182.429 109.641,182.294 109.273 C 182.160 108.905,181.895 108.604,181.704 108.604 C 181.514 108.604,181.248 108.056,181.114 107.386 C 180.980 106.717,180.633 105.899,180.343 105.570 C 178.624 103.617,178.590 90.748,180.300 88.719 C 180.565 88.403,180.898 87.500,181.040 86.711 C 181.181 85.923,181.440 85.277,181.615 85.277 C 181.791 85.277,182.153 84.749,182.420 84.103 C 183.049 82.586,186.984 78.651,188.501 78.023 C 189.147 77.755,189.675 77.393,189.675 77.218 C 189.675 77.042,190.286 76.784,191.032 76.644 C 191.779 76.504,192.610 76.169,192.880 75.899 C 194.576 74.203,208.083 74.225,209.963 75.927 C 210.295 76.227,211.114 76.582,211.784 76.716 C 212.454 76.850,213.002 77.116,213.002 77.306 C 213.002 77.497,213.303 77.763,213.671 77.897 C 214.835 78.322,218.738 81.595,218.738 82.145 C 218.738 82.322,219.168 82.871,219.694 83.365 C 220.220 83.859,220.650 84.497,220.650 84.782 C 220.650 85.068,220.895 85.395,221.195 85.510 C 221.495 85.625,221.852 86.381,221.989 87.189 C 222.125 87.998,222.461 88.745,222.734 88.850 C 223.034 88.965,223.339 90.076,223.502 91.652 C 223.651 93.089,224.016 94.645,224.315 95.111 C 225.238 96.554,224.038 104.886,222.716 106.210 C 222.455 106.471,222.128 107.202,221.989 107.835 C 221.850 108.469,221.599 108.987,221.431 108.987 C 221.263 108.987,220.911 109.503,220.650 110.134 C 220.389 110.765,220.030 111.281,219.852 111.281 C 217.885 111.281,218.887 113.891,221.529 115.644 C 226.301 118.812,230.989 124.338,233.317 129.539 C 233.953 130.960,234.635 132.426,234.833 132.796 C 235.228 133.534,236.248 137.896,236.732 140.918 C 236.900 141.969,237.050 145.638,237.066 149.069 C 237.107 158.202,237.157 158.223,243.584 151.816 C 250.003 145.419,253.390 140.354,257.650 130.784 C 258.509 128.854,259.672 125.325,260.672 121.606 C 261.485 118.588,261.885 102.689,261.227 99.592 C 261.007 98.554,260.625 96.759,260.378 95.602 C 259.865 93.195,258.336 88.310,257.565 86.616 C 257.278 85.985,256.562 84.393,255.973 83.078 C 255.384 81.764,254.795 80.688,254.663 80.688 C 254.532 80.688,254.210 80.215,253.946 79.637 C 253.171 77.932,247.675 69.908,247.143 69.704 C 246.874 69.601,246.654 69.366,246.654 69.182 C 246.654 68.871,241.832 63.862,241.532 63.862 C 241.458 63.862,240.729 63.251,239.914 62.503 C 239.099 61.756,236.797 60.075,234.799 58.768 C 230.104 55.698,229.817 55.523,228.681 55.046 C 228.155 54.825,226.950 54.293,226.004 53.863 C 222.680 52.353,221.966 52.077,219.312 51.275 C 217.839 50.831,216.193 50.469,215.653 50.472 C 215.112 50.476,213.821 50.226,212.782 49.917 C 210.057 49.108,202.984 48.718,196.367 49.012 M205.927 50.110 C 206.979 50.304,209.732 50.724,212.046 51.044 C 218.980 52.002,226.428 54.598,231.358 57.773 C 231.883 58.112,233.088 58.881,234.034 59.483 C 239.958 63.251,248.948 72.087,248.948 74.142 C 248.948 74.356,249.183 74.669,249.470 74.838 C 249.757 75.006,250.276 75.660,250.622 76.291 C 251.389 77.687,251.836 78.395,253.445 80.766 C 260.251 90.794,262.739 111.908,258.642 124.857 C 257.551 128.303,256.081 132.111,255.615 132.696 C 255.363 133.011,255.031 133.700,254.876 134.226 C 254.721 134.751,254.370 135.440,254.095 135.755 C 253.821 136.071,253.482 136.790,253.341 137.353 C 253.201 137.916,252.843 138.470,252.547 138.584 C 252.250 138.697,252.008 139.021,252.008 139.302 C 252.008 139.583,251.620 140.347,251.147 140.999 C 250.674 141.651,250.029 142.563,249.713 143.026 C 248.304 145.093,244.974 149.140,244.682 149.140 C 244.505 149.140,244.359 149.314,244.359 149.528 C 244.359 149.905,243.953 150.313,240.727 153.178 C 237.780 155.794,237.969 156.113,237.711 148.079 C 237.213 132.544,234.089 125.192,224.510 117.017 C 223.154 115.860,221.552 114.458,220.948 113.900 L 219.851 112.887 220.812 111.851 C 221.922 110.653,224.091 106.932,224.094 106.220 C 224.095 105.954,224.396 105.220,224.763 104.589 C 225.887 102.655,225.715 93.566,224.488 90.057 C 221.000 80.078,212.816 73.675,202.868 73.143 C 199.531 72.964,197.908 73.161,193.499 74.281 C 189.184 75.377,183.883 79.392,181.251 83.556 C 179.209 86.789,178.857 87.750,177.750 93.117 C 176.621 98.591,178.251 105.555,181.942 111.023 C 183.400 113.183,183.408 113.244,182.365 113.969 C 176.006 118.391,169.843 125.518,168.446 130.064 C 168.292 130.565,168.009 131.173,167.816 131.415 C 166.445 133.134,165.555 138.719,165.386 146.654 C 165.293 151.071,165.213 154.814,165.208 154.971 C 165.177 156.124,161.621 153.388,158.161 149.550 C 157.511 148.829,156.721 147.963,156.405 147.625 C 153.614 144.639,149.388 137.831,147.019 132.505 C 141.485 120.064,140.943 98.911,145.892 88.470 C 146.206 87.807,146.463 87.140,146.463 86.987 C 146.463 86.364,150.148 79.178,151.693 76.787 C 155.958 70.186,163.131 63.050,169.565 59.007 C 171.988 57.484,179.109 53.920,179.729 53.920 C 179.981 53.920,180.645 53.670,181.203 53.365 C 185.668 50.925,200.057 49.031,205.927 50.110 M105.531 121.199 C 105.749 121.605,105.927 122.986,105.927 124.267 C 105.927 127.265,106.121 127.342,113.591 127.342 L 119.292 127.342 119.865 128.449 C 120.179 129.058,120.545 130.306,120.677 131.222 C 121.256 135.230,124.524 143.157,128.301 149.713 C 131.037 154.461,131.216 153.737,126.004 158.997 C 123.585 161.439,121.606 163.692,121.606 164.005 C 121.606 164.489,129.809 173.001,142.556 185.743 C 146.664 189.850,146.472 189.872,151.625 184.704 C 156.510 179.803,156.463 179.817,160.574 182.137 C 162.172 183.038,164.340 184.168,165.392 184.646 C 166.444 185.125,167.574 185.660,167.905 185.835 C 169.703 186.790,176.352 189.105,180.543 190.235 C 183.556 191.048,183.523 190.962,183.642 198.307 L 183.748 204.780 201.103 204.880 C 213.600 204.951,218.605 204.858,218.981 204.546 C 219.383 204.212,219.503 202.676,219.503 197.859 C 219.503 190.650,219.355 190.942,223.520 189.902 C 229.591 188.386,238.567 184.615,244.033 181.282 C 246.328 179.883,246.837 180.120,251.485 184.755 C 255.095 188.354,255.894 188.977,256.654 188.783 C 257.715 188.513,280.878 165.365,281.217 164.237 C 281.402 163.622,280.549 162.566,277.053 159.080 C 272.299 154.339,272.091 153.908,273.535 151.774 C 275.479 148.902,280.248 138.419,280.910 135.564 C 281.057 134.933,281.306 134.245,281.464 134.034 C 281.623 133.824,281.959 132.620,282.212 131.358 C 283.029 127.269,282.890 127.348,289.397 127.304 C 297.124 127.252,296.897 127.346,297.132 124.076 C 297.237 122.613,297.462 121.200,297.633 120.937 C 298.035 120.315,332.129 120.233,332.512 120.853 C 333.006 121.653,333.212 147.561,333.107 195.602 C 333.096 200.650,333.095 215.793,333.104 229.254 C 333.114 242.715,333.107 257.859,333.089 262.906 C 333.071 267.954,333.104 278.193,333.163 285.660 C 333.221 293.126,333.152 299.520,333.009 299.868 C 332.677 300.672,70.683 300.846,70.017 300.043 C 69.388 299.286,69.674 122.246,70.305 121.485 C 70.905 120.762,73.056 120.671,92.625 120.542 C 104.647 120.462,105.151 120.488,105.531 121.199 M134.034 223.323 C 128.619 224.461,126.964 225.291,123.729 228.489 C 121.280 230.911,120.131 232.866,119.112 236.345 C 118.344 238.972,118.454 268.369,119.241 270.764 C 119.929 272.857,122.861 276.986,124.115 277.627 C 124.733 277.944,125.325 278.302,125.430 278.424 C 125.902 278.971,129.642 280.674,131.582 281.227 C 137.156 282.814,153.633 281.773,156.053 279.681 C 156.385 279.394,156.822 279.159,157.023 279.159 C 157.612 279.159,162.141 274.496,162.141 273.890 C 162.141 273.727,162.442 273.167,162.809 272.647 C 163.427 271.772,165.152 266.576,165.186 265.488 C 165.197 265.126,163.845 265.010,159.656 265.010 C 154.207 265.010,154.111 265.024,154.111 265.846 C 154.111 266.955,152.751 268.894,151.254 269.920 C 149.350 271.224,133.918 271.195,132.672 269.885 C 129.550 266.604,129.081 263.266,129.329 246.070 C 129.458 237.140,129.472 237.090,132.415 234.913 C 134.174 233.612,150.205 233.678,151.241 234.990 C 152.558 236.659,153.728 238.638,153.728 239.199 C 153.728 240.235,155.612 240.616,159.465 240.360 C 165.014 239.991,165.201 239.930,165.201 238.471 C 165.201 232.195,159.861 226.201,152.199 223.876 C 149.817 223.153,136.737 222.755,134.034 223.323 M174.693 223.625 C 174.130 223.996,173.300 224.769,172.849 225.343 L 172.028 226.387 172.069 254.010 C 172.096 272.091,172.244 281.767,172.498 282.021 C 172.937 282.461,181.205 282.794,182.658 282.429 L 183.609 282.190 183.335 270.393 L 183.062 258.596 183.927 258.132 C 184.516 257.817,186.340 257.712,189.637 257.802 L 194.481 257.935 199.189 262.653 C 202.223 265.694,204.159 267.964,204.636 269.042 C 205.043 269.962,205.523 270.805,205.704 270.917 C 205.884 271.028,206.153 271.767,206.301 272.558 C 206.448 273.349,206.735 274.197,206.938 274.442 C 207.212 274.775,207.818 278.844,208.024 281.740 C 208.028 281.793,210.428 281.836,213.358 281.836 C 219.906 281.836,219.455 282.609,217.820 274.187 C 217.514 272.610,216.994 270.803,216.665 270.172 C 216.335 269.541,216.065 268.831,216.064 268.593 C 216.060 267.943,214.081 263.744,213.505 263.166 C 213.228 262.888,213.002 262.516,213.002 262.339 C 213.002 262.162,212.400 261.103,211.663 259.985 C 209.791 257.142,209.883 256.251,212.235 254.458 C 214.051 253.072,216.444 250.460,216.444 249.861 C 216.444 249.708,216.678 249.311,216.965 248.978 C 218.938 246.694,219.814 238.801,218.402 236.022 C 218.007 235.244,217.277 233.748,216.780 232.696 C 215.071 229.078,210.218 225.030,206.443 224.074 C 202.619 223.104,200.748 222.989,188.528 222.970 C 176.906 222.951,175.622 223.012,174.693 223.625 M228.887 223.899 C 225.636 225.896,225.799 224.244,225.918 254.111 C 225.976 268.623,226.019 280.798,226.014 281.166 C 226.005 281.772,226.510 281.836,231.358 281.836 C 236.652 281.836,236.711 281.826,236.721 280.975 C 236.727 280.502,236.722 274.596,236.712 267.850 C 236.693 256.215,236.730 255.551,237.429 254.919 C 238.318 254.113,237.901 253.486,241.946 261.705 C 243.721 265.310,245.361 268.604,245.591 269.025 C 245.821 269.446,246.129 270.048,246.277 270.363 C 246.424 270.679,246.808 271.453,247.129 272.084 C 247.450 272.715,247.837 273.814,247.990 274.525 C 249.281 280.560,252.831 283.070,257.180 281.026 C 259.082 280.132,259.726 279.362,261.821 275.481 C 262.602 274.033,263.566 272.247,263.962 271.511 C 264.359 270.774,266.351 266.925,268.390 262.956 C 273.494 253.019,273.455 252.968,273.585 269.790 L 273.676 281.644 279.094 281.750 L 284.512 281.857 284.608 266.837 C 284.882 223.773,284.826 223.327,279.130 223.327 C 275.758 223.327,275.943 223.047,265.581 243.787 C 256.618 261.725,256.051 262.749,255.146 262.640 C 254.619 262.576,254.058 262.266,253.900 261.950 C 247.019 248.253,238.610 231.041,238.616 230.665 C 238.632 229.585,236.530 225.823,235.129 224.421 C 233.300 222.592,231.288 222.424,228.887 223.899 M204.891 234.931 C 208.996 237.960,209.088 242.867,205.100 246.007 C 204.031 246.849,186.800 247.549,184.064 246.863 C 183.179 246.641,182.597 235.121,183.429 234.289 C 184.260 233.459,203.682 234.040,204.891 234.931 M237.055 324.899 C 237.740 325.506,236.979 338.978,236.155 340.841 C 234.920 343.634,232.230 346.196,229.516 347.163 C 226.283 348.314,175.342 348.748,173.918 347.636 C 173.435 347.259,172.681 346.838,172.242 346.700 C 170.916 346.285,167.983 343.199,166.859 341.038 C 165.786 338.973,165.025 328.472,165.741 325.618 L 165.978 324.674 181.173 324.555 C 197.286 324.428,236.798 324.671,237.055 324.899 " stroke="none" fill="#b2b1b1" fill-rule="evenodd"></path><path id="path4" d="M70.547 15.392 C 70.451 15.655,70.328 18.021,70.272 20.650 L 70.172 25.430 46.463 25.621 L 22.753 25.813 22.654 43.127 C 22.575 56.788,22.656 60.474,23.036 60.594 C 23.301 60.678,33.870 60.826,46.523 60.922 C 59.175 61.018,69.715 61.212,69.945 61.355 C 70.212 61.520,70.363 63.375,70.363 66.498 C 70.363 69.185,70.485 71.505,70.633 71.653 C 71.122 72.141,98.662 44.278,98.662 43.296 C 98.662 42.592,71.521 14.914,70.831 14.914 C 70.771 14.914,70.643 15.129,70.547 15.392 M318.069 28.648 C 307.839 38.915,304.398 42.595,304.398 43.270 C 304.398 43.946,307.885 47.658,318.331 58.102 C 334.167 73.933,332.636 73.119,332.793 65.789 L 332.887 61.407 334.058 61.168 C 334.702 61.037,345.284 60.888,357.574 60.837 C 369.863 60.786,380.005 60.658,380.112 60.551 C 380.400 60.263,380.581 29.138,380.306 27.250 L 380.069 25.627 356.478 25.529 L 332.887 25.430 332.696 20.299 C 332.587 17.386,332.339 15.115,332.122 15.047 C 331.912 14.981,325.588 21.101,318.069 28.648 " stroke="none" fill="#d13d34" fill-rule="evenodd"></path></g></svg>